<?xml version="1.0" standalone="no"?><!DOCTYPE svg PUBLIC "-//W3C//DTD SVG 1.1//EN" "http://www.w3.org/Graphics/SVG/1.1/DTD/svg11.dtd"><svg t="1689407739256" class="icon" viewBox="0 0 1024 1024" version="1.1" xmlns="http://www.w3.org/2000/svg" p-id="3277" width="200" height="200" xmlns:xlink="http://www.w3.org/1999/xlink"><path d="M874.944 12.576l-0.032 147.84 139.776 0.768-91.904 134.848A461.984 461.984 0 0 1 976 512c0 256.256-207.744 464-464 464S48 768.256 48 512 255.744 48 512 48c89.056 0 172.224 25.088 242.88 68.576l120.064-104zM329.024 416H90.688a433.408 433.408 0 0 0-10.688 96c0 238.592 193.408 432 432 432S944 750.592 944 512c0-32.96-3.712-65.12-10.688-96H695.36l-18.88 107.744a39.616 39.616 0 0 1-45.792 32.192h-0.128a39.808 39.808 0 0 1-32.224-46.08L614.72 416h-205.12l16.448 93.856a39.808 39.808 0 0 1-28.288 45.12l-3.968 0.96a39.616 39.616 0 0 1-45.92-32.192L329.024 416z m304.736 210.144a40.224 40.224 0 0 1 40 40 39.488 39.488 0 0 1-39.68 39.68 275.776 275.776 0 0 0-196.928 80.96 39.84 39.84 0 0 1-56.352-0.192 39.84 39.84 0 0 1-0.224-56.352 354.848 354.848 0 0 1 253.184-104.096zM512 80C329.92 80 174.176 192.64 110.592 352h802.816C849.824 192.64 694.048 80 512 80z" fill="#ffffff" p-id="3278"></path></svg>