<?xml version="1.0" standalone="no"?><!DOCTYPE svg PUBLIC "-//W3C//DTD SVG 1.1//EN" "http://www.w3.org/Graphics/SVG/1.1/DTD/svg11.dtd"><svg t="1692528656462" class="icon" viewBox="0 0 1024 1024" version="1.1" xmlns="http://www.w3.org/2000/svg" p-id="4011" xmlns:xlink="http://www.w3.org/1999/xlink" width="200" height="200"><path d="M376.916419 342.306156c-17.249873 0-31.236422 13.981433-31.236422 31.236422l0 30.483268c0 17.254989 13.986549 31.236422 31.236422 31.236422 17.249873 0 31.236422-13.981433 31.236422-31.236422l0-30.483268C408.15284 356.287589 394.166291 342.306156 376.916419 342.306156z" fill="#b598a1" p-id="4012"></path><path d="M620.710934 342.306156c-17.249873 0-31.236422 13.981433-31.236422 31.236422l0 30.483268c0 17.254989 13.986549 31.236422 31.236422 31.236422s31.236422-13.981433 31.236422-31.236422l0-30.483268C651.947356 356.287589 637.960807 342.306156 620.710934 342.306156z" fill="#b598a1" p-id="4013"></path><path d="M575.615876 483.378126c-14.540158-9.324366-33.854039-5.053086-43.152822 9.456373-0.121773 0.193405-13.380752 19.451004-33.971719 19.451004-20.010753 0-32.44597-18.129916-33.279964-19.370163-9.171893-14.428617-28.27702-18.820648-42.832528-9.761318-14.656815 9.100262-19.156292 28.358885-10.050913 43.010583 11.210319 18.048051 41.97909 48.592718 86.164429 48.592718 43.961234 0 75.106582-30.311353 86.580914-48.227398C594.376149 512.001023 590.141708 492.682026 575.615876 483.378126z" fill="#b598a1" p-id="4014"></path><path d="M912.075885 215.663828c-18.796088-81.848123-83.46904-140.680043-164.762531-149.871379-45.857421-5.160533-152.779615 1.179872-248.741177 143.201469-20.635993-60.626799-63.362096-113.00268-137.069819-126.998439-93.444229-17.784038-190.625572 39.019689-231.078912 134.99046-29.014824 68.807109-31.312146 134.137023-6.837732 194.189747 33.417087 81.975013 107.934245 130.425492 144.391575 150.059668-0.844228 11.754718-1.611707 24.078395-2.318812 35.465746l-1.113357 17.631566c-1.144056 17.214057 11.881608 32.100092 29.095665 33.239032 0.701988 0.051165 1.402953 0.071631 2.099824 0.071631 16.309454 0 30.0412-12.659321 31.134091-29.16218l1.13894-17.905812c1.128707-18.251689 2.415003-38.943964 3.89982-55.121412 1.25048-13.563924-6.446829-26.375717-19.008936-31.652907-0.966001-0.406253-96.952122-41.535999-131.467217-126.205377-17.987676-44.13929-15.785521-93.373621 6.548136-146.348136 32.954553-78.181617 106.33277-108.462271 161.860435-97.877191 61.643965 11.70867 99.666954 70.383 101.715613 156.953681 0.340761 14.418384 10.508331 26.721595 24.601304 29.782304 14.103206 3.019777 28.455075-3.934612 34.739199-16.909112 60.733223-125.412314 146.43-194.687074 229.391481-185.327916 54.587246 6.17156 98.116645 46.122457 110.897739 101.777011 19.537985 85.075631-36.350906 178.611957-149.500942 250.195296-2.455935 1.555425-4.682649 3.446495-6.619768 5.612834-9.745968 10.94119-20.259416 30.94171-21.627577 130.526799-0.239454 17.244756 13.553691 31.419594 30.79947 31.66314 16.996093 0 31.42471-13.563924 31.66314-30.80868 0.793062-57.571207 4.855588-80.896448 6.945179-89.194438C874.154203 441.698864 937.323918 325.600683 912.075885 215.663828z" fill="#b598a1" p-id="4015"></path><path d="M736.957495 719.662597c-0.483001-17.244756-14.591323-30.91101-32.100092-30.351262-17.244756 0.488117-30.829146 14.855336-30.351262 32.100092 0.935302 33.351596 2.272763 64.597227 3.497661 93.250824 0.681522 15.882736 1.332345 31.002085 1.850138 45.206598-51.613518-44.423769-105.356536-88.828095-166.55741-119.739105-12.638855-6.405897-28.007891-3.456728-37.423331 7.118118-8.444323 9.497305-19.23304 26.264177-32.888038 47.494711-17.636682 27.41335-44.281529 68.837808-59.595306 81.059154-8.200776 6.517437-27.687596 19.003819-46.335305 8.113795-9.211802-71.430866-13.44215-106.865913-13.467733-163.40051-0.010233-17.244756-13.991666-31.215956-31.236422-31.215956-0.005117 0-0.010233 0-0.01535 0-17.249873 0.010233-31.231305 14.000875-31.221072 31.256888 0.030699 63.438844 5.180999 103.287411 15.44476 182.678576l0.157589 1.209548c0.899486 6.964622 4.117784 13.411451 9.136078 18.323321 37.322024 36.503379 92.178399 37.235043 136.50086 1.860371 23.335475-18.618033 49.813522-59.777455 73.169463-96.088452 4.387937-6.812149 8.836249-13.726629 12.913101-19.919678 51.638077 30.270421 99.692536 71.806419 146.363486 112.153336 12.414751 10.727319 24.77936 21.413706 37.169551 31.866778 5.739724 4.840238 12.902868 7.361665 20.147876 7.361665 4.336772 0 8.704243-0.904603 12.811794-2.755764 10.960633-4.931313 18.119683-15.709797 18.409279-27.718295 0.76748-31.541367-0.940418-71.389934-2.918469-117.542066C739.204675 783.620257 737.877447 752.688781 736.957495 719.662597z" fill="#b598a1" p-id="4016"></path></svg>